<svg t="1651234570897" class="icon" viewBox="0 0 1024 1024" version="1.1" xmlns="http://www.w3.org/2000/svg" p-id="1037" width="200" height="200">
  <path d="M512.1 127.8c49.9 0 98.5 9.5 144.5 28.1 47.6 19.3 90.3 47.7 127 84.4s65.1 79.4 84.4 127c18.7 46 28.1 94.6 28.1 144.5s-9.5 98.5-28.1 144.5c-19.3 47.6-47.7 90.3-84.4 127s-79.4 65.1-127 84.4c-46 18.7-94.6 28.1-144.5 28.1-49.9 0-98.5-9.5-144.5-28.1-47.6-19.3-90.3-47.7-127-84.4s-65.1-79.4-84.4-127c-18.7-46-28.1-94.6-28.1-144.5s9.5-98.5 28.1-144.5c19.3-47.6 47.7-90.3 84.4-127s79.4-65.1 127-84.4c46-18.6 94.6-28.1 144.5-28.1m0-64c-114.7 0-229.3 43.7-316.8 131.2-175 175-175 458.6 0 633.6 87.5 87.5 202.1 131.2 316.8 131.2s229.3-43.7 316.8-131.2c175-175 175-458.6 0-633.6-87.5-87.4-202.1-131.2-316.8-131.2z" p-id="1038" fill="#2c2c2c"></path>
  <path d="M715.8 670.3L557.4 511.8l158.3-158.3-45.3-45.2-158.3 158.3-158.4-158.4-45.3 45.2 158.4 158.4-158.3 158.4 45.2 45.3 158.4-158.4 158.4 158.4z" p-id="1039" fill="#2c2c2c"></path>
</svg>