<svg t="1647621404154" class="icon" viewBox="0 0 1024 1024" version="1.1" xmlns="http://www.w3.org/2000/svg" p-id="4139" width="200" height="200">
  <path d="M554.688 296.256a76.8 76.8 0 0 1-56.192-24.448L435.968 204.8H213.312a3.648 3.648 0 0 0-1.472 0.384 8.512 8.512 0 0 0-2.688 1.984 18.176 18.176 0 0 0-4.352 12.288v457.088c0 5.568 2.112 9.856 4.352 12.288a8.512 8.512 0 0 0 2.688 1.984c0.64 0.32 1.152 0.384 1.472 0.384h597.376a3.648 3.648 0 0 0 1.472-0.384 8.448 8.448 0 0 0 2.688-1.984 18.176 18.176 0 0 0 4.352-12.288V310.848a18.176 18.176 0 0 0-4.352-12.224 8.384 8.384 0 0 0-2.688-2.048 3.648 3.648 0 0 0-1.472-0.32h-256zM128 676.48V219.52c0-24.32 8.96-47.552 24.96-64.64 16-17.152 37.76-26.816 60.352-26.816H441.6a64 64 0 0 1 46.72 20.352l66.432 71.04h256c22.592 0 44.288 9.664 60.352 26.816 16 17.152 24.96 40.384 24.96 64.64v365.696c0 24.32-8.96 47.552-24.96 64.64a82.56 82.56 0 0 1-60.352 26.816H213.312a82.56 82.56 0 0 1-60.288-26.752A94.848 94.848 0 0 1 128 676.608z" p-id="4140" fill="#ffffff"></path>
</svg>