<svg t="1647621439588" class="icon" viewBox="0 0 1024 1024" version="1.1" xmlns="http://www.w3.org/2000/svg" p-id="4541" width="200" height="200">
  <path d="M512 524.8A38.4 38.4 0 1 0 512 448a38.4 38.4 0 0 0 0 76.8zM672 524.8a38.4 38.4 0 1 0 0-76.8 38.4 38.4 0 0 0 0 76.8zM352 524.8a38.4 38.4 0 1 0 0-76.8 38.4 38.4 0 0 0 0 76.8z" p-id="4542" fill="#ffffff"></path>
  <path d="M808.192 231.552c-68.992-57.92-160-93.952-257.408-101.888-97.408-7.936-195.072 12.8-276.16 58.496-81.088 45.696-140.544 113.6-168.064 192a297.216 297.216 0 0 0 17.28 237.312 31.744 31.744 0 0 1 3.776 22.464l-36.992 148.416a29.44 29.44 0 0 0 0.832 17.152 34.496 34.496 0 0 0 10.496 14.72 43.584 43.584 0 0 0 14.08 7.744c5.312 1.792 10.88 2.56 16.64 2.496h8.32l179.968-30.208a62.72 62.72 0 0 1 26.88 3.2 498.368 498.368 0 0 0 284.416 14.4c93.952-23.04 175.296-72.576 230.08-140.288 54.784-67.648 79.552-149.12 70.08-230.464-9.536-81.28-52.672-157.248-122.112-214.848l-2.112-0.64z m34.88 293.312a257.28 257.28 0 0 1-56.96 116.352 323.712 323.712 0 0 1-112.192 83.968c-44.544 20.48-94.08 32.32-144.832 34.56a395.904 395.904 0 0 1-148.48-21.568 160.704 160.704 0 0 0-76.032-7.36l-118.528 20.032 23.936-98.944a92.16 92.16 0 0 0-8.832-63.552 240 240 0 0 1-25.856-123.84 247.04 247.04 0 0 1 41.472-120.832c24.576-37.12 59.008-69.184 100.544-93.632a375.744 375.744 0 0 1 139.456-47.616 400.256 400.256 0 0 1 157.44 9.792 353.216 353.216 0 0 1 134.848 68.736 277.44 277.44 0 0 1 82.304 112.448c16.32 42.432 20.352 87.488 11.712 131.456z" p-id="4543" fill="#ffffff"></path>
</svg>