<svg t="1647621352063" class="icon" viewBox="0 0 1024 1024" version="1.1" xmlns="http://www.w3.org/2000/svg" p-id="2490" width="200" height="200">
  <path d="M672 554.666667a32 32 0 0 0-32-32H384a32 32 0 0 0 0 64h256a32 32 0 0 0 32-32zM672 725.333333a32 32 0 0 0-32-32H384a32 32 0 0 0 0 64h256a32 32 0 0 0 32-32z" p-id="2491" fill="#ffffff"></path>
  <path d="M298.666667 96A117.333333 117.333333 0 0 0 181.333333 213.333333v597.333334A117.333333 117.333333 0 0 0 298.666667 928h426.666666A117.333333 117.333333 0 0 0 842.666667 810.666667V339.968c0-16.256-5.290667-32.042667-15.104-45.013333l-127.914667-169.301334a74.666667 74.666667 0 0 0-59.562667-29.653333H298.666667zM245.333333 213.333333c0-29.44 23.893333-53.333333 53.333334-53.333333h309.333333v187.605333c0 17.664 14.336 32 32 32h138.666667V810.666667c0 29.44-23.893333 53.333333-53.333334 53.333333H298.666667c-29.44 0-53.333333-23.893333-53.333334-53.333333V213.333333z" p-id="2492" fill="#ffffff"></path>
</svg>