<?xml version="1.0" standalone="no"?><!DOCTYPE svg PUBLIC "-//W3C//DTD SVG 1.1//EN" "http://www.w3.org/Graphics/SVG/1.1/DTD/svg11.dtd"><svg t="1650897825458" class="icon" viewBox="0 0 1024 1024" version="1.1" xmlns="http://www.w3.org/2000/svg" p-id="5251" xmlns:xlink="http://www.w3.org/1999/xlink" width="200" height="200"><defs><style type="text/css">@font-face { font-family: feedback-iconfont; src: url("//at.alicdn.com/t/font_1031158_u69w8yhxdu.woff2?t=1630033759944") format("woff2"), url("//at.alicdn.com/t/font_1031158_u69w8yhxdu.woff?t=1630033759944") format("woff"), url("//at.alicdn.com/t/font_1031158_u69w8yhxdu.ttf?t=1630033759944") format("truetype"); }
</style></defs><path d="M114.933333 530.453333l285.653334 172.32a5.333333 5.333333 0 0 1 2.613333 4.586667V917.333333a5.333333 5.333333 0 0 0 5.333333 5.333334h64a5.333333 5.333333 0 0 0 5.333334-5.333334v-233.066666a5.333333 5.333333 0 0 1 1.44-3.68L710.72 432a5.333333 5.333333 0 0 0 0-7.573333l-46.826667-43.573334a5.333333 5.333333 0 0 0-7.573333 0l-228.693333 245.333334a5.333333 5.333333 0 0 1-6.72 0.906666l-152.106667-91.733333a5.333333 5.333333 0 0 1 0.32-9.386667l537.066667-273.493333a5.333333 5.333333 0 0 1 7.68 5.76l-100.906667 537.333333a5.333333 5.333333 0 0 1-8 3.626667l-136.053333-82.08a5.333333 5.333333 0 0 0-6.666667 0.96l-44.533333 48a5.333333 5.333333 0 0 0 1.173333 8.213333l239.573333 144.533334a5.333333 5.333333 0 0 0 8.053334-3.573334L915.306667 122.666667a5.333333 5.333333 0 0 0-7.68-5.76L115.253333 521.12a5.333333 5.333333 0 0 0-0.32 9.333333z" p-id="5252"></path></svg>