<svg t="1647621393620" class="icon" viewBox="0 0 1024 1024" version="1.1" xmlns="http://www.w3.org/2000/svg" p-id="3893" width="200" height="200">
  <path d="M428.93823 70.362573c46.385404-12.429723 94.050308 14.698292 107.180663 60.701443l0.386245 1.399267 8.085209 30.164085 1.156741 0.105794c38.678456 3.57901 76.103361 13.498635 111.050105 29.236896l1.415236 0.640749 0.768499 0.352312 21.832359-21.830363c33.616343-33.616343 87.704702-34.285037 122.135454-2.006082l1.037972 0.988071 1.034979 1.018011 47.989271 47.990269c33.956678 33.95568 34.296016 88.798565 1.020008 123.171431l-1.018012 1.034979-21.647719 21.647719 0.357302 0.772491c16.009731 34.931774 26.184858 72.38163 29.996413 111.112983l0.150706 1.570931 0.113778 1.245568 29.695002 7.959454c45.920312 12.303969 73.544359 58.811135 62.805333 104.768374l-0.337341 1.393279-0.364289 1.405255-17.565692 65.554963c-12.428725 46.385404-59.753294 74.100273-106.159657 62.46899l-1.406253-0.364288-30.183049-8.086207-0.578869 0.811416a352.137232 352.137232 0 0 1-81.087626 80.988818l-1.268522 0.904234-0.70163 0.494035 8.178027 30.527377c12.304967 45.92131-14.159345 93.09717-59.329123 106.776452l-1.375313 0.40421-1.399267 0.387244-65.554963 17.565692c-46.385404 12.428725-94.050308-14.69929-107.180663-60.702441l-0.386246-1.399267-8.383625-31.280904-1.072905-0.101801c-38.275244-3.776624-75.295938-13.768109-109.868413-29.461458l-1.419228-0.648733-0.506012-0.234542-23.057965 23.057965c-33.616343 33.616343-87.704702 34.285037-122.135454 2.006082l-1.037973-0.988071-1.034978-1.018011-47.989271-47.990269c-33.956678-33.95568-34.296016-88.798565-1.020008-123.171431l1.01901-1.035977 23.242604-23.2446-0.229552-0.501022c-15.733271-34.445723-25.797614-71.333676-29.685021-109.479173l-0.157692-1.590893-0.093817-0.98308-31.743002-8.50938c-45.920312-12.303969-73.544359-58.811135-62.805333-104.768374l0.337341-1.393279 0.364288-1.405255 17.565692-65.554963c12.428725-46.385404 59.753294-74.100273 106.159657-62.46899l1.406254 0.364288 31.248967 8.370651 0.439142-0.623782a352.13823 352.13823 0 0 1 80.241279-81.049699l1.257544-0.908227 0.733567-0.524974-8.278831-30.903642c-12.304967-45.92131 14.159345-93.09717 59.330121-106.776452l1.374316-0.40421 1.399267-0.387244 65.554963-17.565692z m45.869411 78.636413c-3.390378-12.65129-16.29717-20.210526-28.95345-17.036725l-0.383251 0.098807-65.554963 17.565692c-12.650292 3.38938-20.209528 16.296172-17.036726 28.953451l0.099806 0.383251 14.212241 53.052382a31.937622 31.937622 0 0 1-13.724195 35.222207l-0.373271 0.234542-1.159735 0.717598a288.09232 288.09232 0 0 0-93.048265 93.579228l-0.704623 1.150753-0.229552 0.37327a31.937622 31.937622 0 0 1-34.891852 13.990675l-0.429162-0.111782-53.523462-14.337996c-12.650292-3.390378-25.649903 4.008172-29.230908 16.555665l-0.105793 0.381255-17.565692 65.554963c-3.38938 12.650292 4.00917 25.649903 16.558658 29.231907l0.382254 0.105793 53.95462 14.461754a31.937622 31.937622 0 0 1 23.64382 29.592203l0.053895 1.801482c1.392281 45.32747 13.334955 88.874417 34.623376 127.921154a31.937622 31.937622 0 0 1-5.135969 37.546666l-0.319376 0.324367-39.522807 39.523805c-9.25692 9.257918-9.351735 24.208717-0.285442 33.584405l0.28644 0.290433 47.989271 47.990269c9.257918 9.257918 24.208717 9.352733 33.584406 0.285443l0.291431-0.286441 39.376093-39.373099c9.928608-9.92761 25.15986-12.196179 37.533692-5.638987l1.588897 0.864312c38.795228 21.031922 82.014815 32.85483 126.996959 34.286035l1.363337 0.039922 0.459103 0.015969a31.937622 31.937622 0 0 1 29.408562 23.225637l0.114776 0.416188 14.330011 53.465575c3.390378 12.65129 16.29717 20.210526 28.953451 17.036725l0.383251-0.098807 65.554963-17.565692c12.650292-3.38938 20.209528-16.296172 17.036725-28.953451l-0.099805-0.384249-14.152359-52.828819c-3.635899-13.571493 2.027041-27.906495 13.910831-35.339976l1.542986-0.943158a288.082339 288.082339 0 0 0 94.736967-94.655127 31.937622 31.937622 0 0 1 35.049544-14.240187l0.426168 0.111782 52.357738 14.025606c12.650292 3.390378 25.649903-4.008172 29.230909-16.555665l0.105793-0.381255 17.565692-65.554963c3.38938-12.650292-4.00917-25.649903-16.557661-29.231907l-0.382253-0.105793-52.008421-13.939774c-13.576483-3.638893-23.160764-15.7183-23.649809-29.730932l-0.011977-0.429161-0.033933-1.395275c-1.199657-45.551033-13.049513-89.329528-34.330948-128.586854l-0.864312-1.590893a31.937622 31.937622 0 0 1 5.316616-37.207329l0.320375-0.325365 37.962853-37.965848c9.257918-9.257918 9.353731-24.208717 0.286441-33.584405l-0.286441-0.290433-47.989271-47.990269c-9.257918-9.257918-24.208717-9.352733-33.584405-0.285443l-0.291431 0.286441-38.111563 38.108569a31.937622 31.937622 0 0 1-37.871033 5.457341c-39.911049-21.760499-84.516928-33.754074-130.919299-34.701224-14.067524-0.287439-26.27069-9.741973-30.083243-23.251587l-0.113778-0.410198-14.072515-52.505451zM512.499025 320.374269c105.832296 0 191.625731 85.793435 191.625731 191.625731s-85.793435 191.625731-191.625731 191.625731-191.625731-85.793435-191.625731-191.625731 85.793435-191.625731 191.625731-191.625731z m0 63.875244c-70.554199 0-127.750487 57.196288-127.750487 127.750487 0 70.554199 57.196288 127.750487 127.750487 127.750487 70.554199 0 127.750487-57.196288 127.750488-127.750487 0-70.554199-57.196288-127.750487-127.750488-127.750487z" p-id="3894" fill="#ffffff"></path>
</svg>