<?xml version="1.0" standalone="no"?><!DOCTYPE svg PUBLIC "-//W3C//DTD SVG 1.1//EN" "http://www.w3.org/Graphics/SVG/1.1/DTD/svg11.dtd"><svg t="1650897810771" class="icon" viewBox="0 0 1024 1024" version="1.1" xmlns="http://www.w3.org/2000/svg" p-id="4447" xmlns:xlink="http://www.w3.org/1999/xlink" width="200" height="200"><defs><style type="text/css">@font-face { font-family: feedback-iconfont; src: url("//at.alicdn.com/t/font_1031158_u69w8yhxdu.woff2?t=1630033759944") format("woff2"), url("//at.alicdn.com/t/font_1031158_u69w8yhxdu.woff?t=1630033759944") format("woff"), url("//at.alicdn.com/t/font_1031158_u69w8yhxdu.ttf?t=1630033759944") format("truetype"); }
</style></defs><path d="M922.694 336.994c-22.447-53.07-54.574-100.725-95.491-141.641-40.916-40.916-88.57-73.044-141.641-95.491-54.961-23.246-113.325-35.033-173.472-35.033S393.58 76.616 338.619 99.862c-53.07 22.447-100.725 54.575-141.641 95.491-40.917 40.916-73.044 88.571-95.491 141.641-23.247 54.961-35.034 113.325-35.034 173.472 0 60.147 11.787 118.511 35.034 173.472 22.447 53.07 54.574 100.725 95.49 141.641 40.917 40.917 88.571 73.044 141.642 95.491 54.961 23.246 113.325 35.033 173.472 35.033s118.511-11.787 173.472-35.033c53.07-22.447 100.725-54.574 141.641-95.491 40.917-40.916 73.044-88.571 95.491-141.641 23.246-54.961 35.033-113.325 35.033-173.472 0-60.147-11.788-118.511-35.034-173.472zM512.091 892.103c-210.436 0-381.637-171.202-381.637-381.637s171.202-381.637 381.637-381.637S893.728 300.03 893.728 510.465 722.526 892.103 512.091 892.103z" p-id="4448"></path><path d="M328.252 418.546m-76.599 0a76.599 76.599 0 1 0 153.198 0 76.599 76.599 0 1 0-153.198 0Z" p-id="4449"></path><path d="M695.93 418.546m-76.599 0a76.599 76.599 0 1 0 153.198 0 76.599 76.599 0 1 0-153.198 0Z" p-id="4450"></path><path d="M732.466 588.229c-16.279-6.879-35.053 0.741-41.932 17.021-30.374 71.885-100.417 118.334-178.443 118.334-78.026 0-148.069-46.449-178.444-118.334-6.879-16.28-25.653-23.899-41.932-17.021-16.28 6.879-23.9 25.652-17.021 41.932 40.408 95.631 133.592 157.424 237.397 157.424 103.806 0 196.989-61.793 237.396-157.424 6.879-16.28-0.742-35.054-17.021-41.932z" p-id="4451"></path></svg>