<svg t="1651234555306" class="icon" viewBox="0 0 1024 1024" version="1.1" xmlns="http://www.w3.org/2000/svg" p-id="828" width="200" height="200">
  <path d="M509.9 129.1c51.9 0 102.2 10.1 149.5 30.2 45.7 19.3 86.8 47 122.1 82.3s63 76.4 82.3 122.1c20 47.3 30.2 97.6 30.2 149.5s-10.1 102.2-30.2 149.5c-19.3 45.7-47 86.8-82.3 122.1s-76.4 63-122.1 82.3c-47.3 20-97.6 30.2-149.5 30.2S407.7 887 360.4 866.9c-45.7-19.3-86.8-47-122.1-82.3s-63-76.4-82.3-122.1c-20-47.3-30.2-97.6-30.2-149.5S136 410.9 156 363.6c19.3-45.7 47-86.8 82.3-122.1s76.4-63 122.1-82.3c47.3-20 97.6-30.1 149.5-30.1m0-64c-247.4 0-448 200.6-448 448s200.6 448 448 448 448-200.6 448-448-200.6-448-448-448z" p-id="829" fill="#2c2c2c"></path>
  <path d="M444.3 710.8L248 514.5l45.3-45.3 151 151.1 282.2-282.2 45.3 45.2z" p-id="830" fill="#2c2c2c"></path>
</svg>