<?xml version="1.0" standalone="no"?><!DOCTYPE svg PUBLIC "-//W3C//DTD SVG 1.1//EN" "http://www.w3.org/Graphics/SVG/1.1/DTD/svg11.dtd"><svg t="1648170686184" class="icon" viewBox="0 0 1024 1024" version="1.1" xmlns="http://www.w3.org/2000/svg" p-id="5385" xmlns:xlink="http://www.w3.org/1999/xlink" width="200" height="200"><defs><style type="text/css">@font-face { font-family: feedback-iconfont; src: url("//at.alicdn.com/t/font_1031158_u69w8yhxdu.woff2?t=1630033759944") format("woff2"), url("//at.alicdn.com/t/font_1031158_u69w8yhxdu.woff?t=1630033759944") format("woff"), url("//at.alicdn.com/t/font_1031158_u69w8yhxdu.ttf?t=1630033759944") format("truetype"); }
</style></defs><path d="M424.5 602.6c-7.3 8.2-6.4 20.7 2 27.8L705 865.1c8.4 7.1 17.6 4.2 20.4-6.4l197.4-741.1c2.8-10.6-0.5-16.7-7.3-13.5-6.9 3.2-20.9 9.1-31.1 13.1L168.3 395.3c-10.3 4-11.7 13-3.2 20l188 156c8.5 7 21.2 5.9 28.2-2.6l10-11.9c7.1-8.4 6-21.1-2.5-28.2L269 428c-8.4-7.1-6.9-16 3.5-19.7L824.6 206c10.3-3.8 16.5 1.8 13.6 12.4L694.3 759.1c-2.8 10.6-12 13.5-20.5 6.5L463.4 588.9c-8.4-7.1-21.3-6.1-28.6 2.1l-10.3 11.6z" fill="#2680F0" p-id="5386"></path><path d="M378.4 683.4c7.8-7.7 19.8-19.6 26.5-26.4 6.8-6.8 18.7-18.7 26.5-26.4l170-168.3c7.8-7.7 7.6-20.2-0.4-27.7l-12.5-11.7c-8-7.5-21-7.3-28.8 0.4l-19.1 18.9c-7.8 7.7-20.6 20.4-28.4 28.1l-237.9 235c-7.8 7.7-14.2 23.1-14.2 34.1v168.5c0 11 6.2 13.4 13.7 5.4l144.1-153c7.5-8 7.3-20.9-0.4-28.7l-6.9-6.9c-7.8-7.8-20.2-7.5-27.6 0.6L329.3 784c-7.4 8.1-13.5 5.8-13.5-5.2v-13.5c0-11 6.4-26.3 14.2-34l48.4-47.9z" fill="#2680F0" p-id="5387"></path></svg>