<?xml version="1.0" standalone="no"?><!DOCTYPE svg PUBLIC "-//W3C//DTD SVG 1.1//EN" "http://www.w3.org/Graphics/SVG/1.1/DTD/svg11.dtd"><svg t="1646317609083" class="icon" viewBox="0 0 1024 1024" version="1.1" xmlns="http://www.w3.org/2000/svg" p-id="5262" xmlns:xlink="http://www.w3.org/1999/xlink" width="200" height="200"><defs><style type="text/css"></style></defs><path d="M522.346 617.752" p-id="5263"></path><path d="M347.697 62.948l0 0.02C198.57 64.375 76.528 196.061 73.545 344.564l-0.812 0-1.633 600.408 601.153 1.628 0.043-0.077c148.199-2.601 274.787-124.356 277.74-272.067l0.222 0 1.656-609.865L347.697 62.948 347.697 62.948zM834.35 674.139c-2.651 88.833-70.601 154-159.453 156.754l-489.53-0.336 2.345-483.927 0 0c1.882-91.086 68.016-168.157 159.67-168.403l489.082 0.318-2.348 495.594L834.35 674.139 834.35 674.139zM834.35 674.139" p-id="5264"></path><path d="M621.673 479.732c27.089-21.375 44.479-54.5 44.479-91.684 0-64.468-52.261-116.728-116.726-116.728-64.466 0-116.725 52.26-116.725 116.728 0 37.184 17.389 70.306 44.478 91.684-71.667 28.685-122.294 98.765-122.294 180.678l0 58.362c0 10.745 8.709 19.453 19.454 19.453l350.178 0c10.745 0 19.453-8.708 19.453-19.453l0-19.453L743.97 660.41C743.97 578.497 693.34 508.415 621.673 479.732L621.673 479.732zM471.608 388.049c0-42.978 34.84-77.819 77.818-77.819 42.979 0 77.818 34.841 77.818 77.819 0 42.978-34.84 77.816-77.818 77.816C506.448 465.865 471.608 431.026 471.608 388.049L471.608 388.049zM705.063 679.863c0 10.743-8.712 19.456-19.455 19.456L413.245 699.319c-10.744 0-19.454-8.713-19.454-19.456l0-19.456c0-85.953 69.68-155.634 155.634-155.634 85.956 0 155.637 69.681 155.637 155.634L705.062 679.863 705.063 679.863zM705.063 679.863" p-id="5265"></path><path d="M432.701 485.318c0-10.742-8.71-19.453-19.456-19.453l0 0c-32.233 0-58.36-26.129-58.36-58.363s26.127-58.362 58.359-58.362l0.001 0c10.746 0 19.456-8.712 19.456-19.457 0-10.745-8.71-19.455-19.456-19.455l0 0c-53.722 0-97.272 43.551-97.272 97.273 0 29.58 13.208 56.071 34.042 73.913-43.364 22.777-72.949 68.246-72.949 120.629 0 10.743 8.709 19.456 19.453 19.456 10.746 0 19.455-8.713 19.455-19.456 0-53.719 43.55-97.27 97.272-97.27C423.991 504.775 432.701 496.063 432.701 485.318L432.701 485.318zM432.701 485.318" p-id="5266"></path></svg>