<?xml version="1.0" standalone="no"?><!DOCTYPE svg PUBLIC "-//W3C//DTD SVG 1.1//EN" "http://www.w3.org/Graphics/SVG/1.1/DTD/svg11.dtd"><svg t="1649863497927" class="icon" viewBox="0 0 1024 1024" version="1.1" xmlns="http://www.w3.org/2000/svg" p-id="5261" xmlns:xlink="http://www.w3.org/1999/xlink" width="200" height="200"><defs><style type="text/css">@font-face { font-family: feedback-iconfont; src: url("//at.alicdn.com/t/font_1031158_u69w8yhxdu.woff2?t=1630033759944") format("woff2"), url("//at.alicdn.com/t/font_1031158_u69w8yhxdu.woff?t=1630033759944") format("woff"), url("//at.alicdn.com/t/font_1031158_u69w8yhxdu.ttf?t=1630033759944") format("truetype"); }
</style></defs><path d="M996.8 472c-20.8-17.6-43.2-20.8-68.8-17.6l-94.4 12.8c-8-64-59.2-115.2-128-115.2h-64c20.8-30.4 33.6-64 33.6-99.2 0-89.6-72-166.4-163.2-166.4-51.2 0-99.2 25.6-128 68.8-25.6-25.6-59.2-38.4-99.2-38.4-81.6 0-150.4 68.8-150.4 153.6 0 33.6 8 64 25.6 86.4H128c-72 0-128 56-128 128v324.8c0 72 56 128 128 128h577.6c72 0 128-56 128-128v-4.8l89.6 17.6h12.8c20.8 0 38.4-8 56-20.8 20.8-17.6 30.4-38.4 30.4-64V539.2c4.8-28.8-8-54.4-25.6-67.2zM513.6 171.2c43.2 0 76.8 33.6 76.8 81.6 0 43.2-33.6 81.6-76.8 81.6s-76.8-33.6-76.8-81.6 33.6-81.6 76.8-81.6z m-230.4 25.6c33.6 0 64 30.4 64 68.8s-30.4 68.8-64 68.8-64-30.4-64-68.8 28.8-68.8 64-68.8z m465.6 608c0 25.6-17.6 43.2-43.2 43.2H128c-25.6 0-43.2-17.6-43.2-43.2V480c0-25.6 17.6-43.2 43.2-43.2h577.6c25.6 0 43.2 17.6 43.2 43.2v324.8z m193.6-72l-107.2-17.6V552l107.2-17.6v198.4z" p-id="5262"></path></svg>