<?xml version="1.0" standalone="no"?><!DOCTYPE svg PUBLIC "-//W3C//DTD SVG 1.1//EN" "http://www.w3.org/Graphics/SVG/1.1/DTD/svg11.dtd"><svg t="1650283962539" class="icon" viewBox="0 0 1024 1024" version="1.1" xmlns="http://www.w3.org/2000/svg" p-id="4116" xmlns:xlink="http://www.w3.org/1999/xlink" width="200" height="200"><defs><style type="text/css">@font-face { font-family: feedback-iconfont; src: url("//at.alicdn.com/t/font_1031158_u69w8yhxdu.woff2?t=1630033759944") format("woff2"), url("//at.alicdn.com/t/font_1031158_u69w8yhxdu.woff?t=1630033759944") format("woff"), url("//at.alicdn.com/t/font_1031158_u69w8yhxdu.ttf?t=1630033759944") format("truetype"); }
</style></defs><path d="M482.990804 585.965595l58.015322 0 0 58.014298-58.015322 0 0-58.014298Z" p-id="4117"></path><path d="M855.733157 63.83998 168.26582 63.83998c-57.672514 0-104.425328 46.752814-104.425328 104.426351l0 687.46836c0 57.672514 46.752814 104.425328 104.425328 104.425328L855.733157 960.16002c57.672514 0 104.425328-46.752814 104.425328-104.425328L960.158485 168.266331C960.158485 110.592794 913.406694 63.83998 855.733157 63.83998zM570.012763 672.987554 453.984167 672.987554 453.984167 498.94466l116.028597 0L570.012763 672.987554zM570.013787 237.880829l-58.014298 0 0 58.014298 58.014298 0 0 58.014298-58.014298 0 0 58.014298 58.014298 0 0 58.014298-58.015322 0 0-58.014298-58.014298 0 0-58.014298 58.014298 0 0-58.014298-58.014298 0L453.984167 237.880829l58.014298 0 0-58.014298-58.014298 0 0-58.014298 58.015322 0 0 58.014298 58.014298 0L570.013787 237.880829z" p-id="4118"></path></svg>